[CENTER][COLOR=#808000]Don 2 (2011) EU DvDScr (Audio cleaned) x264 1CDRip [/COLOR]

[IMG]http://www.hindimovies.org/wp-content/uploads/2011/12/don-2-posters.jpg[/IMG]

Quote
 ormat                           : Matroska
File size                        : 703 MiB
Duration                         : 2h 20mn
Overall bit rate                 : 701 Kbps


Video
ID                               : 1
Format                           : AVC
Format/Info                      : Advanced Video Codec
Format profile                   : Main@L2.1
Format settings, CABAC           : Yes
Format settings, ReFrames        : 4 frames
Muxing mode                      : Header stripping
Codec ID                         : V_MPEG4/ISO/AVC
Duration                         : 2h 20mn
Bit rate                         : 614 Kbps
Width                            : 600 pixels
Height                           : 240 pixels
Display aspect ratio             : 2.500
Frame rate mode                  : Variable
Frame rate                       : 25.000 fps
Color space                      : YUV
Chroma subsampling               : 4:2:0
Bit depth                        : 8 bits
Scan type                        : Progressive
Bits/(Pixel*Frame)               : 0.171
Stream size                      : 609 MiB (87%)


Audio
ID                               : 2
Format                           : MPEG Audio
Format version                   : Version 1
Format profile                   : Layer 3
Mode                             : Joint stereo
Mode extension                   : MS Stereo
Muxing mode                      : Header stripping
Codec ID                         : A_MPEG/L3
Codec ID/Hint                    : MP3
Duration                         : 2h 20mn
Bit rate mode                    : Constant
Bit rate                         : 80.0 Kbps
Channel(s)                       : 2 channels
Sampling rate                    : 32.0 KHz
Compression mode                 : Lossy
Stream size                      : 80.3 MiB (11%)
Writing library                  : LAME3.98r
Encoding settings                : -m j -V 4 -q 2 -lowpass 13.5 -b 80






[IMG]http://i.imgur.com/jnqsw.png[/IMG]
[IMG]http://i.imgur.com/OyxDD.png[/IMG]
[IMG]http://i.imgur.com/BpUAG.png[/IMG]
[IMG]http://i.imgur.com/1LYqx.png[/IMG]
[IMG]http://i.imgur.com/5EUmh.png[/IMG]
[IMG]http://i.imgur.com/luYTN.png[/IMG]
[IMG]http://i.imgur.com/hY87d.png[/IMG]
[IMG]http://i.imgur.com/N5Tw6.png[/IMG]
[IMG]http://i.imgur.com/LjZLG.png[/IMG]
[IMG]http://i.imgur.com/efA5c.png[/IMG]
[IMG]http://i.imgur.com/IAjvp.png[/IMG]
[IMG]http://i.imgur.com/15Ziu.png[/IMG]
[IMG]http://i.imgur.com/RBkMA.png[/IMG]


[COLOR=#0000FF]Check Sample First For Quality .then download full movie

Sample[/COLOR]

[COLOR=#8B0000][URL]http://www.uploadking.com/B5YLG0E4HQ[/URL]


Credits to [/COLOR]
[B][COLOR=DarkOrange][B]John F. nash
[/B][/COLOR][/B]

[/CENTER]